<svg version="1.0" xmlns="http://www.w3.org/2000/svg" width="508.000000pt" height="508.000000pt" viewBox="0 0 508.000000 508.000000" fill="whitesmoke" preserveAspectRatio="xMidYMid meet">

<g transform="translate(0.000000,508.000000) scale(0.100000,-0.100000)" fill="whitesmoke" stroke="none">
<path d="M1165 5070 c-110 -22 -213 -78 -295 -160 -65 -65 -102 -122 -139 -219 l-26 -66 -3 -2047 c-3 -2270 -7 -2123 63 -2265 41 -83 134 -184 210 -228 26 -16 77 -40 114 -54 l66 -26 1565 -3 c1741 -3 1610 -8 1644 63 20 42 20 59 0 101 -21 43 -59 64 -119 64 l-45 0 0 345 0 345 46 0 c25 0 59 8 75 17 63 38 59 -114 59 2063 0 2177 4 2025 -59 2063 -27 16 -135 17 -1573 16 -848 -1 -1561 -5 -1583 -9z m115 -1608 c0 -1241 2 -1390 16 -1410 19 -27 65 -52 97 -52 37 0 91 41 104 80 9 27 12 370 12 1403 l1 1367 837 0 838 0 482 -482 483 -483 0 -885 0 -885 -482 -482 -483 -483 -837 0 -838 0 -1 288 c0 319 -4 343 -58 379 -39 27 -71 29 -111 8 -60 -31 -60 -30 -60 -366 l0 -307 -63 -6 c-75 -8 -185 -45 -238 -80 -21 -14 -41 -26 -44 -26 -3 0 -4 798 -3 1773 l3 1772 29 62 c51 111 178 200 289 202 l27 1 0 -1388z m2870 1068 c0 -176 -1 -320 -3 -320 -1 0 -146 144 -322 320 l-320 320 323 0 322 0 0 -320z m0 -3065 l0 -315 -322 0 -323 0 315 315 c173 173 318 315 322 315 5 0 8 -142 8 -315z m-180 -890 l0 -345 -1368 0 c-1220 0 -1374 2 -1422 16 -101 30 -171 91 -217 189 -39 84 -40 195 -2 275 46 99 120 164 222 195 34 11 309 14 1415 14 l1372 1 0 -345z"/>
</g>
</svg>