<svg version="1.0" xmlns="http://www.w3.org/2000/svg" width="250.000000pt" height="250.000000pt" viewBox="0 0 250.000000 250.000000" preserveAspectRatio="xMidYMid meet">

<g transform="translate(0.000000,250.000000) scale(0.100000,-0.100000)" fill="whitesmoke" stroke="none">
<path d="M790 2295 c0 -28 -59 -119 -94 -148 -19 -15 -45 -49 -57 -75 -20 -44 -20 -52 -9 -137 21 -148 21 -164 -1 -82 -12 42 -24 77 -28 77 -4 0 -19 -37 -33 -82 l-26 -83 23 -133 c12 -73 18 -135 14 -138 -5 -2 -17 13 -29 36 -11 22 -22 40 -23 40 -1 0 1 -35 5 -77 3 -43 7 -88 7 -100 1 -12 21 -51 46 -87 25 -36 42 -66 39 -66 -3 0 -18 7 -34 15 -22 11 -28 12 -25 3 2 -7 9 -32 15 -56 9 -36 18 -46 58 -67 80 -41 83 -47 23 -39 l-53 6 31 -46 c24 -35 39 -46 59 -47 15 -1 38 -4 52 -9 l25 -7 -33 -15 -32 -14 51 -24 51 -24 34 39 c34 39 35 42 30 105 -4 58 13 172 28 187 8 8 53 -5 68 -20 11 -11 11 -47 2 -205 -6 -106 -17 -204 -23 -220 -18 -43 -76 -75 -125 -69 l-41 6 57 -52 c36 -33 88 -100 141 -183 96 -147 117 -186 163 -297 l32 -78 7 313 c8 370 1 426 -63 518 -37 52 -82 132 -82 145 0 3 24 3 53 -1 64 -9 149 -68 167 -117 l13 -32 10 33 c14 45 94 102 159 114 28 5 52 7 55 5 6 -7 -33 -82 -78 -148 -62 -92 -69 -148 -62 -524 4 -223 9 -311 16 -290 47 149 249 481 337 552 l50 41 -39 -5 c-30 -4 -48 0 -76 17 -60 37 -63 47 -76 268 -10 174 -10 205 2 213 19 13 59 22 65 16 15 -15 32 -129 28 -187 -5 -63 -4 -66 30 -105 l34 -39 51 24 51 24 -32 14 -33 15 25 7 c14 5 37 8 52 9 20 1 35 12 59 47 l31 46 -53 -6 c-60 -8 -57 -2 23 39 40 21 49 31 58 67 6 24 13 49 15 56 3 9 -3 8 -25 -3 -16 -8 -31 -15 -34 -15 -3 0 14 30 39 66 25 36 45 75 46 87 0 12 4 57 7 100 4 42 6 77 5 77 -1 0 -13 -19 -25 -42 -22 -41 -23 -42 -26 -16 -2 15 6 77 17 138 l20 112 -26 84 c-15 46 -30 84 -34 84 -4 0 -16 -35 -28 -77 -22 -82 -22 -66 -1 82 11 85 11 93 -9 137 -12 26 -38 60 -57 75 -33 27 -85 105 -98 148 -3 11 -4 -14 -1 -55 2 -51 14 -102 34 -158 37 -99 39 -160 12 -285 -21 -96 -28 -109 -94 -179 -39 -43 -48 -48 -87 -48 -26 0 -51 7 -62 17 -17 15 -19 15 -39 -3 -21 -19 -22 -19 -37 6 -9 14 -49 59 -89 100 -39 41 -81 95 -92 120 l-20 44 -17 -40 c-10 -21 -48 -70 -84 -109 -36 -38 -77 -86 -91 -105 -27 -35 -27 -35 -48 -16 -20 18 -22 18 -39 3 -11 -10 -36 -17 -62 -17 -39 0 -48 5 -87 48 -66 69 -73 84 -94 174 -28 123 -25 192 12 290 28 77 52 228 35 228 -3 0 -6 -7 -6 -15z"/>
</g>
</svg>