<svg xmlns="http://www.w3.org/2000/svg" version="1.1" viewBox="0 0 1406 2048" width="414" height="603" fill="whitesmoke">
<path transform="translate(1231,790)" d="m0 0 6 2 11 5 6 3-1 6-8 16-12 22-13 28-13 26-11 23-8 16 6-3 12-11 23-23 7-8h2v-2l7-7 9 1 10 3 5 6 1 18-10 17-5 8-9 16-6 10-12 23-8 21-7 18-11 30-8 20-5 12-10 30-11 25-16 34-38 76-10 19-8 16-8 17-10 19-10 30-3 11-7 8-8 7-12 12-6 5-24 6-29 7-16 7-17 10-9 6-18 10-16 9-14 8-22 13-14 9-16 12-9 7-12 9-10 7-8 4-7 3-18 8-3 1 6 10-3 3-13 3-5 5v2l6 2 4 5 3 1h13l-1 7v9l4 8 6 7-1 7-5 4 1-6-3-5-10-2-3 11-6 17-6 16-10 24-8 16-10 9-8 7-5 5-8 9-8 12-6 11-11 23-9 23-6 18-6 26-3 31v26l3 22v5l-8 5-4 2-20 5h-15l-15-5-19-7-11-5-23-11-20-12-7-3 4 6v3l-10 2-10-4-14-7-10-4-19-9-16-8-26-12-19-8-25-11-31-13-18-8-35-15-9-4-16-6-43-20-11-5-27-12-2-1 1-4 15-15 7-8 9-10 11-12 12-11 9-10 8-13 5-11 10-23 9-20 9-21 8-19 5-13 4-3 24-5 15-3 16-8 14-10 13-12 8-10 8-14 11-23 6-9 2-1 12 5 17 5 20 6 22 6 33 6h7l8-10 10-8 14-7 7-5h2l1-24 8-11 11-16 11-15 9-3 17-3 24-3 26-12 17-7 8-4 54-24 11-6 7-8 6-11 10-16 11-18 10-16 24-32 11-15 12-16 7-11 6-9 7-11 8-12 8-13 10-13 11-12 8-10 14-18 6-7 18-8 12-4 12-5 7-2h6l7 9 6 9-2 5-5 12-14 29-11 23-8 16-4 9-4 15-6 21-3 11 5-5 6-8 8-11 13-18 9-15 7-16 9-21 10-24 7-16 1-9-4-13-3-6v-6l5-11 6-19 8-23 5-16 7-16 30-45 8-13 7-10 14-21 6-8 8-7 14-14 8-7 4 2 11 9 3 4-1 4-9 22-3 7-1 5 5-5 6-10 9-14 7-11 9-14 6-8 4-6 8-8 8-7 10-9z"/>
<path transform="translate(781,299)" d="m0 0h57l16 2 16 7 10 6 12 9 11 7 14 12 7 7 6 10 14 35 4 18 5 11v15l-1 8-2 17-5 32-9 24-6 11-6 9-7 10-4 6-7 6-11 8-12 7-8 1-7 1-8 6-2 1h-6l-3-4-29 1-8-2-9-3-10-3-12-7-11-9-11-11-5-4-7-9-5-15-1-5v-24l4-17 4-11 7-11 9-10 9-9 10-4 3-1h22l12 2 7 6 3 7 3 18-2 6-2 10-2 3-4-2-4-6-14-7-7-1h-9l-4 5-6 5-7 9 1 5 1 17 2 7 6 7 8 3h7l6-1h13l12-5 4-3 9-2 20-8 13-2 8-10 3-6v-7l3-5v-45l-5-20-7-11-9-7-17-7-12-2h-68l-20 2-11 4-16 8-9 6-7 6-8 6-7 7-5 10-5 4-5 8-3 13v18l2 21 3 21 3 10 3 15 7 23 9 16 10 13 10 11 5 5 10 6 12 8 14 10 11 6 14 9 14 12 10 9 11 14 7 7 9 11 6 9 8 18 8 21 3 25 1 9 1 21v46l-1 13-3 20-2 13-8 15-4 6-4 7-5 5-12 16-9 11-11 12-8 11-2 7v6l5 12 3 12 1 8-9-4 4 8 4 5 1 6h-3l3 9-2 1-7-1 3 6 4 9v4l-4 1v6l-9-5-11-11-7-10-4-13-3-14 1-16 4-37 5-25 7-26 7-16 10-16 6-7 5-8 2-8 2-14 4-16 1-8v-61l-9-19-10-16-6-8-28-21-17-12-14-8-17-8-5-4-4-5-9-7-9-5-8-4-15-7-12-6-9-7-9-10-8-13-8-15-8-17-5-12-2-12-2-47v-30l2-31 3-14 8-24 9-16 8-10 7-10 11-14 17-12 16-9 10-7 3-5 19-7 22-6 9-2z"/>
<path transform="translate(827,1208)" d="m0 0 1 3-7 10-28 42-11 16-16 22-4 4-8 3-16 8-21 9-16 7-9 4-11 7-15 10-10 6-7 3-27 5-16 4h-4l2-6 8-16 11-21 4-8 12-11 18-18 8-7 13-12 12-6 16-6 19-7 16-6 28-11 18-8 16-8 21-11z"/>
<path transform="translate(783,104)" d="m0 0 6 2 5 8 2 9 1 17-1 12-3 10-5 5h-7l-3-3-3-7v-38l5-13z"/>
<path transform="translate(480,333)" d="m0 0 5 1 11 8 11 9 3 4v8l-4 5-9-3-8-4-9-8-3-8 1-9z"/>
<path transform="translate(585,165)" d="m0 0 6 2 11 11 6 9 1 2v17l-3 3-6-5-9-11-7-10-1-2v-14z"/>
<path transform="translate(979,161)" d="m0 0 4 2 2 5v15l-10 13-8 5h-4l-1-2v-12l7-17 5-5z"/>
<path transform="translate(1077,303)" d="m0 0h7l1 3v9l-3 5-4 3-15 4-5-1-1-6 2-9 4-3z"/>
<path transform="translate(800,1052)" d="m0 0 2 1z"/>
<path transform="translate(802,1053)" d="m0 0"/>
</svg>